<svg width="32" height="32" viewBox="0 0 32 32" fill="none" xmlns="http://www.w3.org/2000/svg">
<g opacity="0.3">
<path d="M13.3327 23.9993C15.6993 23.9989 17.9978 23.2066 19.862 21.7487L25.7233 27.61L27.6087 25.7247L21.7474 19.8633C23.206 17.9989 23.9988 15.6999 23.9993 13.3327C23.9993 7.45135 19.214 2.66602 13.3327 2.66602C7.45135 2.66602 2.66602 7.45135 2.66602 13.3327C2.66602 19.214 7.45135 23.9993 13.3327 23.9993ZM13.3327 5.33268C17.7447 5.33268 21.3327 8.92068 21.3327 13.3327C21.3327 17.7447 17.7447 21.3327 13.3327 21.3327C8.92068 21.3327 5.33268 17.7447 5.33268 13.3327C5.33268 8.92068 8.92068 5.33268 13.3327 5.33268Z" fill="white"/>
</g>
</svg>
