<svg width="244" height="160" viewBox="0 0 244 160" fill="none" xmlns="http://www.w3.org/2000/svg">
<path d="M40.7244 109.798V110.855H41.7807V109.798H40.7244ZM31.6574 109.798H30.6011V110.855H31.6574V109.798ZM31.6574 105.28V104.224H30.6011V105.28H31.6574ZM36.2064 105.28V106.337H37.2626V105.28H36.2064ZM36.2064 100.762V99.7059H35.1501V100.762H36.2064ZM40.7244 100.762V101.819H41.7807V100.762H40.7244ZM40.7244 96.2132V95.1569H39.6682V96.2132H40.7244ZM45.2425 96.2132V97.2695H46.2988V96.2132H45.2425ZM45.2425 91.6952V90.6389H44.1862V91.6952H45.2425ZM49.7606 91.6952V92.7514H50.8168V91.6952H49.7606ZM49.7606 87.1771H50.8168V86.1208H49.7606V87.1771ZM4.51806 87.1771H3.46178V88.2334H4.51806V87.1771ZM4.51806 80.3691V79.3128H3.46178V80.3691H4.51806ZM49.7606 80.3691V81.4253H50.8168V80.3691H49.7606ZM49.7606 75.851H50.8168V74.7947H49.7606V75.851ZM45.2425 75.851H44.1862V76.9073H45.2425V75.851ZM45.2425 71.3329H46.2988V70.2767H45.2425V71.3329ZM40.7244 71.3329H39.6682V72.3892H40.7244V71.3329ZM40.7244 66.7839H41.7807V65.7277H40.7244V66.7839ZM36.2064 66.7839H35.1501V67.8402H36.2064V66.7839ZM36.2064 62.2659H37.2626V61.2096H36.2064V62.2659ZM31.6574 62.2659H30.6011V63.3222H31.6574V62.2659ZM31.6574 57.7478V56.6915H30.6011V57.7478H31.6574ZM40.7244 57.7478H41.7807V56.6915H40.7244V57.7478ZM40.7244 62.2659H39.6682V63.3222H40.7244V62.2659ZM45.2425 62.2659H46.2988V61.2096H45.2425V62.2659ZM45.2425 66.7839H44.1862V67.8402H45.2425V66.7839ZM49.7606 66.7839H50.8168V65.7277H49.7606V66.7839ZM49.7606 71.3329H48.7043V72.3892H49.7606V71.3329ZM54.3096 71.3329H55.3658V70.2767H54.3096V71.3329ZM54.3096 75.851H53.2533V76.9073H54.3096V75.851ZM58.8276 75.851H59.8839V74.7947H58.8276V75.851ZM58.8276 91.6952V92.7514H59.8839V91.6952H58.8276ZM54.3096 91.6952V90.6389H53.2533V91.6952H54.3096ZM54.3096 96.2132V97.2695H55.3658V96.2132H54.3096ZM49.7606 96.2132V95.1569H48.7043V96.2132H49.7606ZM49.7606 100.762V101.819H50.8168V100.762H49.7606ZM45.2425 100.762V99.7059H44.1862V100.762H45.2425ZM45.2425 105.28V106.337H46.2988V105.28H45.2425ZM40.7244 105.28V104.224H39.6682V105.28H40.7244ZM40.7244 108.742H31.6574V110.855H40.7244V108.742ZM32.7136 109.798V105.28H30.6011V109.798H32.7136ZM31.6574 106.337H36.2064V104.224H31.6574V106.337ZM37.2626 105.28V100.762H35.1501V105.28H37.2626ZM36.2064 101.819H40.7244V99.7059H36.2064V101.819ZM41.7807 100.762V96.2132H39.6682V100.762H41.7807ZM40.7244 97.2695H45.2425V95.1569H40.7244V97.2695ZM46.2988 96.2132V91.6952H44.1862V96.2132H46.2988ZM45.2425 92.7514H49.7606V90.6389H45.2425V92.7514ZM50.8168 91.6952V87.1771H48.7043V91.6952H50.8168ZM49.7606 86.1208H4.51806V88.2334H49.7606V86.1208ZM5.57434 87.1771V80.3691H3.46178V87.1771H5.57434ZM4.51806 81.4253H49.7606V79.3128H4.51806V81.4253ZM50.8168 80.3691V75.851H48.7043V80.3691H50.8168ZM49.7606 74.7947H45.2425V76.9073H49.7606V74.7947ZM46.2988 75.851V71.3329H44.1862V75.851H46.2988ZM45.2425 70.2767H40.7244V72.3892H45.2425V70.2767ZM41.7807 71.3329V66.7839H39.6682V71.3329H41.7807ZM40.7244 65.7277H36.2064V67.8402H40.7244V65.7277ZM37.2626 66.7839V62.2659H35.1501V66.7839H37.2626ZM36.2064 61.2096H31.6574V63.3222H36.2064V61.2096ZM32.7136 62.2659V57.7478H30.6011V62.2659H32.7136ZM31.6574 58.8041H40.7244V56.6915H31.6574V58.8041ZM39.6682 57.7478V62.2659H41.7807V57.7478H39.6682ZM40.7244 63.3222H45.2425V61.2096H40.7244V63.3222ZM44.1862 62.2659V66.7839H46.2988V62.2659H44.1862ZM45.2425 67.8402H49.7606V65.7277H45.2425V67.8402ZM48.7043 66.7839V71.3329H50.8168V66.7839H48.7043ZM49.7606 72.3892H54.3096V70.2767H49.7606V72.3892ZM53.2533 71.3329V75.851H55.3658V71.3329H53.2533ZM54.3096 76.9073H58.8276V74.7947H54.3096V76.9073ZM57.7713 75.851V91.6952H59.8839V75.851H57.7713ZM58.8276 90.6389H54.3096V92.7514H58.8276V90.6389ZM53.2533 91.6952V96.2132H55.3658V91.6952H53.2533ZM54.3096 95.1569H49.7606V97.2695H54.3096V95.1569ZM48.7043 96.2132V100.762H50.8168V96.2132H48.7043ZM49.7606 99.7059H45.2425V101.819H49.7606V99.7059ZM44.1862 100.762V105.28H46.2988V100.762H44.1862ZM45.2425 104.224H40.7244V106.337H45.2425V104.224ZM39.6682 105.28V109.798H41.7807V105.28H39.6682Z" fill="white"/>
<rect x="100.846" y="21.5527" width="121.528" height="137.947" stroke="white"/>
<rect x="111.408" y="11.0254" width="121.528" height="137.947" stroke="white" stroke-dasharray="2 2"/>
<rect x="121.973" y="0.5" width="121.528" height="137.947" stroke="white" stroke-dasharray="2 2"/>
<path d="M160.846 61.098H157.814V58.0653H160.846V61.098ZM181.972 79.1909H178.939V73.1668H175.927V70.1547H169.903V67.1221H175.927V64.11H178.939V58.0653H181.972V64.11H184.984V67.1221H191.029V70.1547H184.984V73.1668H181.972V79.1909ZM154.802 70.1547H151.79V67.1221H154.802V70.1547ZM163.858 97.3044H160.846V88.2476H157.814V85.2356H148.778V82.2235H157.814V79.1909H160.846V70.1547H163.858V79.1909H166.871V82.2235H175.927V85.2356H166.871V88.2476H163.858V97.3044ZM191.029 82.2235H187.996V79.1909H191.029V82.2235ZM186.49 100.316H183.478V95.7983H178.939V92.7863H183.478V88.2476H186.49V92.7863H191.029V95.7983H186.49V100.316ZM154.802 100.316H151.79V97.3044H154.802V100.316Z" fill="white"/>
</svg>
