<svg width="187" height="160" viewBox="0 0 187 160" fill="none" xmlns="http://www.w3.org/2000/svg">
<path d="M48.4385 60.7534L49.9695 71.2688L49.204 72.3356L50.888 73.8596L49.204 75.2312L51.6535 76.6028L49.9695 77.2124L52.7251 81.3271L47.8262 95.8049L51.6535 110.435L67.422 105.406L75.9952 99.3101L77.8323 97.7861L76.7606 83.6131L62.3699 83.0035L66.8096 77.2124L75.9952 69.1353L72.0148 59.6866L51.6535 51.3047L48.4385 60.7534Z" stroke="white" stroke-width="0.869565"/>
<path d="M112.431 60.7534L110.9 71.2688L111.666 72.3356L109.982 73.8596L111.666 75.2312L109.216 76.6028L110.9 77.2124L108.145 81.3271L113.043 95.8049L109.216 110.435L94.5193 105.254L86.5585 99.0053L85.0275 98.0909V83.7655L98.4997 83.0035L94.06 77.2124L85.6399 69.2877L89.161 59.839L109.216 51.3047L112.431 60.7534Z" stroke="white" stroke-width="0.869565"/>
<path d="M89.4684 59.8379H72.1689L75.9963 69.2866L77.8334 98.2422H85.0287L85.6411 69.2866L89.4684 59.8379Z" stroke="white" stroke-width="0.869565"/>
<path d="M67.4219 105.559L69.7183 107.387L76.7605 110.131H86.4053L91.9167 107.387L94.3661 105.559" stroke="white" stroke-width="0.869565"/>
<path d="M75.5366 105.252L76.6083 99.1566L77.9861 98.2422H85.0283L86.2531 99.1566L87.0185 105.252L85.6407 103.881H76.6083L75.5366 105.252Z" stroke="white" stroke-width="0.869565"/>
<path d="M73.2398 86.3555L68.3408 88.489L75.8424 90.6226L73.2398 86.3555Z" stroke="white" stroke-width="0.869565"/>
<path d="M88.396 86.3555L93.2949 88.489L85.7934 90.6226L88.396 86.3555Z" stroke="white" stroke-width="0.869565"/>
<circle cx="80" cy="80" r="79.5" stroke="white"/>
<circle cx="160" cy="79.9995" r="26.4565" stroke="white" stroke-dasharray="2 2"/>
<circle cx="160" cy="79.9991" r="6.08696" fill="white"/>
</svg>
