<svg width="185" height="160" viewBox="0 0 185 160" fill="none" xmlns="http://www.w3.org/2000/svg">
<circle cx="80.4346" cy="80" r="79.5" stroke="white"/>
<path d="M114.323 76.957C114.334 77.6301 114.341 78.3053 114.345 78.9826L113.845 78.9852C113.847 79.323 113.848 79.6612 113.848 80C113.848 80.3388 113.847 80.677 113.845 81.0148L114.345 81.0174C114.341 81.6947 114.334 82.3699 114.323 83.0431L113.824 83.0351C113.813 83.7105 113.799 84.3837 113.781 85.0547L114.281 85.0679C114.263 85.7453 114.241 86.4203 114.216 87.0929L113.716 87.0743C113.691 87.7494 113.663 88.4221 113.63 89.0923L114.13 89.1163C114.097 89.7933 114.061 90.4677 114.021 91.1394L113.522 91.1099C113.482 91.7846 113.439 92.4565 113.392 93.1257L113.891 93.1607C113.843 93.8368 113.792 94.5101 113.738 95.1803L113.239 95.1398C113.185 95.8138 113.126 96.4848 113.064 97.1527L113.562 97.199C113.499 97.8737 113.433 98.5452 113.363 99.2135L112.866 99.1615C112.796 99.8348 112.722 100.505 112.644 101.171L113.141 101.229C113.062 101.902 112.98 102.571 112.895 103.236L112.399 103.173C112.313 103.845 112.223 104.513 112.129 105.178L112.624 105.248C112.53 105.918 112.432 106.584 112.33 107.246L111.836 107.17C111.733 107.841 111.626 108.508 111.516 109.17L112.009 109.252C111.898 109.919 111.783 110.582 111.664 111.24L111.172 111.152C111.052 111.821 110.928 112.485 110.8 113.144L111.291 113.239C111.162 113.905 111.029 114.566 110.892 115.221L110.403 115.119C110.265 115.783 110.123 116.442 109.977 117.095L110.465 117.204C110.317 117.868 110.165 118.526 110.009 119.178L109.523 119.062C109.366 119.72 109.206 120.371 109.041 121.017L109.526 121.14C109.357 121.802 109.185 122.457 109.009 123.106L108.526 122.974C108.349 123.626 108.168 124.272 107.983 124.91L108.463 125.049C108.274 125.705 108.08 126.353 107.882 126.995L107.405 126.848C107.205 127.496 107.001 128.137 106.793 128.771L107.268 128.926C107.057 129.571 106.841 130.207 106.622 130.836L106.149 130.671C105.925 131.315 105.696 131.95 105.463 132.576L105.931 132.751C105.693 133.39 105.451 134.02 105.205 134.641L104.74 134.457C104.491 135.085 104.238 135.703 103.98 136.312L104.441 136.507C104.173 137.139 103.902 137.761 103.625 138.372L103.17 138.166C102.89 138.785 102.605 139.393 102.317 139.989L102.767 140.207C102.47 140.821 102.168 141.423 101.862 142.012L101.418 141.781C101.105 142.385 100.787 142.975 100.464 143.552L100.9 143.796C100.565 144.396 100.225 144.981 99.8794 145.552L99.4516 145.293C99.0996 145.875 98.7428 146.442 98.3814 146.992L98.7993 147.266C98.4228 147.839 98.0412 148.395 97.6547 148.934L97.2485 148.642C96.8529 149.193 96.4524 149.726 96.0472 150.238L96.4394 150.548C96.0137 151.087 95.5824 151.605 95.146 152.101L94.7705 151.771C94.3212 152.282 93.8667 152.77 93.4074 153.233L93.7626 153.585C93.2771 154.075 92.7858 154.539 92.2889 154.977L91.9586 154.601C91.4503 155.049 90.9369 155.467 90.4188 155.855L90.7187 156.255C90.1677 156.669 89.6106 157.049 89.0478 157.397L88.785 156.972C88.2142 157.324 87.6384 157.641 87.0579 157.921L87.2755 158.372C86.6573 158.67 86.033 158.929 85.403 159.148L85.2394 158.675C84.6143 158.892 83.9843 159.066 83.3499 159.198L83.4517 159.688C82.7891 159.826 82.1211 159.918 81.4481 159.965L81.4136 159.466C81.0884 159.489 80.762 159.5 80.4345 159.5C80.107 159.5 79.7806 159.489 79.4554 159.466L79.4209 159.965C78.7479 159.918 78.0799 159.826 77.4173 159.688L77.5191 159.198C76.8848 159.066 76.2548 158.892 75.6296 158.675L75.466 159.148C74.8361 158.929 74.2118 158.67 73.5936 158.372L73.8111 157.921C73.2307 157.641 72.6548 157.324 72.084 156.972L71.8213 157.397C71.2585 157.049 70.7013 156.669 70.1503 156.255L70.4503 155.855C69.9321 155.467 69.4187 155.049 68.9105 154.601L68.5801 154.977C68.0833 154.539 67.5919 154.075 67.1064 153.585L67.4616 153.233C67.0023 152.77 66.5478 152.282 66.0985 151.771L65.723 152.101C65.2866 151.605 64.8554 151.087 64.4296 150.548L64.8219 150.238C64.4167 149.726 64.0161 149.193 63.6205 148.642L63.2143 148.934C62.8278 148.395 62.4462 147.839 62.0697 147.266L62.4876 146.992C62.1263 146.442 61.7695 145.875 61.4175 145.293L60.9896 145.552C60.6445 144.981 60.3041 144.396 59.9686 143.796L60.405 143.552C60.0825 142.975 59.7645 142.385 59.451 141.781L59.0073 142.012C58.7012 141.423 58.3996 140.821 58.1025 140.207L58.5525 139.989C58.2638 139.393 57.9794 138.785 57.6994 138.166L57.2438 138.372C56.9676 137.761 56.6957 137.139 56.4283 136.507L56.8888 136.312C56.6313 135.703 56.3779 135.085 56.1288 134.457L55.664 134.641C55.4178 134.02 55.1757 133.39 54.9379 132.751L55.4065 132.576C55.1735 131.95 54.9444 131.315 54.7196 130.671L54.2475 130.836C54.028 130.207 53.8125 129.571 53.6011 128.926L54.0761 128.771C53.8683 128.137 53.6644 127.496 53.4645 126.848L52.9867 126.995C52.789 126.354 52.5953 125.705 52.4056 125.049L52.8859 124.91C52.7011 124.272 52.5201 123.626 52.343 122.975L51.8605 123.106C51.6842 122.457 51.5118 121.802 51.3434 121.14L51.8279 121.017C51.6635 120.371 51.5029 119.72 51.346 119.062L50.8597 119.178C50.704 118.526 50.5521 117.868 50.404 117.204L50.892 117.095C50.7463 116.442 50.6043 115.783 50.4661 115.119L49.9766 115.221C49.8401 114.566 49.7073 113.905 49.5783 113.239L50.0691 113.144C49.9413 112.485 49.8171 111.821 49.6967 111.152L49.2046 111.24C49.0862 110.582 48.9713 109.919 48.8602 109.252L49.3534 109.17C49.243 108.508 49.1363 107.841 49.0332 107.17L48.539 107.246C48.4374 106.584 48.3394 105.918 48.245 105.248L48.7401 105.178C48.6465 104.513 48.5564 103.845 48.4701 103.173L47.9741 103.236C47.8886 102.571 47.8067 101.902 47.7284 101.229L48.2251 101.171C48.1475 100.505 48.0735 99.8348 48.0032 99.1615L47.5059 99.2135C47.4361 98.5453 47.3698 97.8737 47.3071 97.199L47.805 97.1527C47.743 96.4848 47.6845 95.8138 47.6296 95.1398L47.1312 95.1803C47.0767 94.5101 47.0256 93.8368 46.9782 93.1607L47.477 93.1257C47.43 92.4565 47.3866 91.7846 47.3467 91.1099L46.8476 91.1394C46.8079 90.4677 46.7718 89.7933 46.7393 89.1163L47.2387 89.0923C47.2065 88.4221 47.1777 87.7494 47.1526 87.0743L46.653 87.0929C46.6279 86.4203 46.6064 85.7452 46.5884 85.0679L47.0883 85.0547C47.0705 84.3837 47.0562 83.7105 47.0455 83.0351L46.5456 83.043C46.5349 82.3699 46.5277 81.6947 46.5242 81.0174L47.0242 81.0148C47.0224 80.677 47.0215 80.3388 47.0215 80C47.0215 79.6612 47.0224 79.323 47.0242 78.9852L46.5242 78.9826C46.5277 78.3053 46.5349 77.6301 46.5456 76.9569L47.0455 76.9649C47.0562 76.2895 47.0705 75.6163 47.0883 74.9453L46.5884 74.9321C46.6064 74.2547 46.6279 73.5797 46.653 72.9071L47.1526 72.9257C47.1777 72.2506 47.2065 71.5779 47.2387 70.9077L46.7393 70.8837C46.7718 70.2067 46.8079 69.5323 46.8476 68.8606L47.3467 68.8901C47.3866 68.2154 47.43 67.5435 47.477 66.8743L46.9782 66.8393C47.0256 66.1632 47.0767 65.4899 47.1312 64.8197L47.6296 64.8602C47.6845 64.1862 47.743 63.5152 47.805 62.8473L47.3071 62.801C47.3698 62.1263 47.4361 61.4547 47.5059 60.7865L48.0032 60.8385C48.0735 60.1652 48.1475 59.4953 48.2251 58.8289L47.7284 58.7711C47.8067 58.0984 47.8886 57.4292 47.9741 56.7637L48.4701 56.8274C48.5564 56.1551 48.6465 55.4866 48.7401 54.822L48.245 54.7523C48.3394 54.0823 48.4374 53.4163 48.539 52.7543L49.0332 52.8302C49.1363 52.1591 49.243 51.4922 49.3534 50.8297L48.8602 50.7475C48.9713 50.0805 49.0862 49.4179 49.2046 48.7598L49.6967 48.8483C49.8171 48.1794 49.9413 47.5152 50.0691 46.8558L49.5783 46.7607C49.7073 46.0951 49.8401 45.4345 49.9766 44.7789L50.4661 44.8808C50.6043 44.217 50.7463 43.5583 50.892 42.9051L50.404 42.7962C50.5521 42.1325 50.704 41.4743 50.8597 40.8217L51.346 40.9377C51.5029 40.2804 51.6635 39.6289 51.8279 38.9833L51.3434 38.8599C51.5118 38.1985 51.6842 37.5433 51.8605 36.8944L52.343 37.0255C52.5201 36.3736 52.7011 35.7283 52.8859 35.0897L52.4056 34.9507C52.5953 34.2951 52.789 33.6465 52.9867 33.0051L53.4645 33.1524C53.6644 32.5039 53.8683 31.8629 54.0761 31.2295L53.6011 31.0736C53.8125 30.4292 54.028 29.7927 54.2475 29.1642L54.7196 29.329C54.9444 28.6852 55.1734 28.05 55.4065 27.4235L54.9379 27.2492C55.1757 26.6101 55.4178 25.9799 55.664 25.3591L56.1288 25.5434C56.3779 24.9152 56.6313 24.2966 56.8888 23.6879L56.4283 23.4931C56.6957 22.861 56.9675 22.2393 57.2437 21.6284L57.6993 21.8344C57.9794 21.215 58.2638 20.607 58.5525 20.0106L58.1025 19.7927C58.3996 19.179 58.7012 18.5774 59.0073 17.9881L59.451 18.2186C59.7645 17.6152 60.0825 17.025 60.405 16.4484L59.9686 16.2044C60.3041 15.6045 60.6445 15.019 60.9896 14.4482L61.4175 14.707C61.7695 14.1248 62.1263 13.5585 62.4876 13.0083L62.0697 12.7338C62.4462 12.1607 62.8278 11.6046 63.2143 11.0661L63.6205 11.3577C64.0161 10.8066 64.4166 10.2745 64.8219 9.7618L64.4296 9.45174C64.8554 8.91311 65.2866 8.3953 65.723 7.89889L66.0985 8.22901C66.5478 7.71791 67.0023 7.23031 67.4616 6.76677L67.1064 6.41484C67.592 5.92485 68.0833 5.46082 68.5801 5.02349L68.9105 5.39881C69.4187 4.95147 69.9321 4.5332 70.4503 4.14465L70.1503 3.74462C70.7013 3.33145 71.2585 2.9506 71.8213 2.603L72.084 3.02841C72.6548 2.67588 73.2307 2.359 73.8111 2.07855L73.5936 1.62835C74.2118 1.32965 74.8361 1.07063 75.4661 0.852466L75.6297 1.32494C76.2548 1.10844 76.8848 0.933744 77.5192 0.801811L77.4174 0.312285C78.0799 0.174492 78.748 0.0816467 79.4209 0.0350487L79.4555 0.533854C79.7807 0.511337 80.107 0.5 80.4345 0.5C80.762 0.5 81.0884 0.511338 81.4136 0.533857L81.4482 0.0350512C82.1211 0.0816508 82.7892 0.174498 83.4517 0.312292L83.3499 0.801817C83.9843 0.933752 84.6143 1.10845 85.2394 1.32495L85.403 0.852476C86.033 1.07064 86.6573 1.32966 87.2755 1.62836L87.058 2.07856C87.6384 2.35901 88.2142 2.67589 88.785 3.02842L89.0478 2.60301C89.6106 2.95061 90.1677 3.33146 90.7187 3.74463L90.4188 4.14466C90.937 4.5332 91.4503 4.95148 91.9586 5.39881L92.2889 5.02349C92.7858 5.46083 93.2771 5.92486 93.7626 6.41484L93.4074 6.76677C93.8667 7.23031 94.3212 7.71791 94.7705 8.22902L95.146 7.89889C95.5824 8.3953 96.0136 8.91311 96.4394 9.45173L96.0472 9.76179C96.4524 10.2745 96.8529 10.8066 97.2485 11.3577L97.6547 11.0661C98.0412 11.6046 98.4228 12.1606 98.7993 12.7338L98.3814 13.0083C98.7428 13.5585 99.0996 14.1248 99.4516 14.7069L99.8794 14.4482C100.225 15.019 100.565 15.6045 100.9 16.2043L100.464 16.4484C100.787 17.025 101.105 17.6151 101.418 18.2186L101.862 17.9881C102.168 18.5774 102.469 19.179 102.767 19.7927L102.317 20.0106C102.605 20.607 102.89 21.215 103.17 21.8343L103.625 21.6284C103.902 22.2393 104.173 22.8609 104.441 23.4931L103.98 23.6879C104.238 24.2966 104.491 24.9152 104.74 25.5434L105.205 25.3591C105.451 25.9799 105.693 26.61 105.931 27.2492L105.463 27.4235C105.696 28.05 105.925 28.6852 106.149 29.329L106.622 29.1642C106.841 29.7927 107.057 30.4292 107.268 31.0736L106.793 31.2295C107.001 31.8628 107.205 32.5039 107.405 33.1524L107.882 33.0051C108.08 33.6465 108.274 34.2951 108.463 34.9507L107.983 35.0897C108.168 35.7283 108.349 36.3736 108.526 37.0255L109.009 36.8944C109.185 37.5432 109.357 38.1985 109.526 38.8599L109.041 38.9833C109.206 39.6288 109.366 40.2804 109.523 40.9377L110.009 40.8217C110.165 41.4742 110.317 42.1325 110.465 42.7962L109.977 42.9051C110.123 43.5583 110.265 44.2169 110.403 44.8808L110.892 44.7789C111.029 45.4345 111.162 46.0951 111.291 46.7606L110.8 46.8558C110.928 47.5152 111.052 48.1794 111.172 48.8483L111.664 48.7598C111.783 49.4179 111.898 50.0805 112.009 50.7475L111.516 50.8297C111.626 51.4922 111.733 52.1591 111.836 52.8302L112.33 52.7543C112.432 53.4163 112.53 54.0823 112.624 54.7523L112.129 54.822C112.223 55.4866 112.313 56.1551 112.399 56.8274L112.895 56.7637C112.98 57.4292 113.062 58.0984 113.141 58.7711L112.644 58.8289C112.722 59.4953 112.796 60.1652 112.866 60.8385L113.363 60.7865C113.433 61.4547 113.499 62.1263 113.562 62.801L113.064 62.8473C113.126 63.5152 113.185 64.1862 113.239 64.8602L113.738 64.8197C113.792 65.4899 113.843 66.1632 113.891 66.8393L113.392 66.8743C113.439 67.5435 113.482 68.2154 113.522 68.8901L114.021 68.8606C114.061 69.5324 114.097 70.2067 114.13 70.8837L113.63 70.9077C113.663 71.5779 113.691 72.2506 113.716 72.9257L114.216 72.9071C114.241 73.5797 114.263 74.2548 114.281 74.9321L113.781 74.9453C113.799 75.6163 113.813 76.2895 113.824 76.9649L114.323 76.957Z" stroke="white" stroke-dasharray="2 2"/>
<path d="M83.4776 113.89C82.8045 113.901 82.1292 113.908 81.452 113.911L81.4493 113.411C81.1116 113.413 80.7733 113.414 80.4346 113.414C80.0958 113.414 79.7575 113.413 79.4198 113.411L79.4171 113.911C78.7399 113.908 78.0646 113.901 77.3915 113.89L77.3994 113.39C76.7241 113.379 76.0508 113.365 75.3799 113.347L75.3666 113.847C74.6893 113.829 74.0143 113.808 73.3416 113.783L73.3602 113.283C72.6851 113.258 72.0124 113.229 71.3423 113.197L71.3182 113.696C70.6413 113.664 69.9669 113.628 69.2952 113.588L69.3247 113.089C68.65 113.049 67.978 113.005 67.3089 112.958L67.2739 113.457C66.5978 113.41 65.9245 113.359 65.2542 113.304L65.2948 112.806C64.6207 112.751 63.9497 112.693 63.2818 112.63L63.2356 113.128C62.5609 113.066 61.8893 112.999 61.2211 112.93L61.273 112.432C60.5998 112.362 59.9299 112.288 59.2635 112.21L59.2057 112.707C58.533 112.629 57.8638 112.547 57.1983 112.461L57.262 111.965C56.5897 111.879 55.9212 111.789 55.2566 111.695L55.1868 112.19C54.5169 112.096 53.8509 111.998 53.1889 111.896L53.2648 111.402C52.5937 111.299 51.9268 111.192 51.2643 111.082L51.1821 111.575C50.5151 111.464 49.8525 111.349 49.1943 111.231L49.2829 110.739C48.614 110.618 47.9498 110.494 47.2904 110.366L47.1952 110.857C46.5297 110.728 45.8691 110.595 45.2135 110.459L45.3154 109.969C44.6515 109.831 43.9929 109.689 43.3397 109.543L43.2308 110.031C42.5671 109.883 41.9088 109.731 41.2563 109.576L41.3723 109.089C40.715 108.933 40.0634 108.772 39.4179 108.608L39.2945 109.092C38.6331 108.924 37.9778 108.751 37.329 108.575L37.4601 108.092C36.8082 107.915 36.1629 107.734 35.5242 107.55L35.3853 108.03C34.7297 107.84 34.0811 107.646 33.4397 107.449L33.587 106.971C32.9385 106.771 32.2974 106.567 31.6641 106.359L31.5082 106.834C30.8638 106.623 30.2272 106.407 29.5987 106.188L29.7636 105.716C29.1198 105.491 28.4846 105.262 27.8581 105.029L27.6838 105.498C27.0446 105.26 26.4145 105.018 25.7937 104.771L25.978 104.307C25.3498 104.058 24.7312 103.804 24.1225 103.547L23.9277 104.007C23.2955 103.74 22.6738 103.468 22.0629 103.192L22.2689 102.736C21.6496 102.456 21.0416 102.172 20.4452 101.883L20.2273 102.333C19.6136 102.036 19.012 101.734 18.4227 101.428L18.6532 100.984C18.0497 100.671 17.4596 100.353 16.883 100.03L16.6389 100.467C16.039 100.131 15.4535 99.791 14.8828 99.4458L15.1415 99.018C14.5594 98.666 13.9931 98.3092 13.4429 97.9478L13.1684 98.3657C12.5952 97.9892 12.0392 97.6076 11.5007 97.2211L11.7923 96.8149C11.2412 96.4193 10.709 96.0188 10.1964 95.6136L9.8863 96.0058C9.34767 95.5801 8.82986 95.1488 8.33345 94.7124L8.66359 94.3369C8.15248 93.8876 7.66487 93.4331 7.20134 92.9738L6.84941 93.329C6.35942 92.8435 5.89538 92.3522 5.45805 91.8553L5.83337 91.525C5.38605 91.0167 4.96777 90.5033 4.57922 89.9852L4.17918 90.2851C3.76602 89.7341 3.38516 89.177 3.03757 88.6142L3.46298 88.3514C3.11046 87.7806 2.79358 87.2048 2.51312 86.6243L2.06293 86.8419C1.76422 86.2237 1.5052 85.5994 1.28703 84.9694L1.7595 84.8058C1.54301 84.1807 1.36832 83.5507 1.23637 82.9163L0.746855 83.0181C0.609068 82.3555 0.516219 81.6875 0.469618 81.0145L0.968428 80.98C0.945906 80.6548 0.934569 80.3284 0.934569 80.0009C0.934569 79.6734 0.945906 79.347 0.968428 79.0218L0.469618 78.9873C0.516219 78.3143 0.609068 77.6463 0.746855 76.9837L1.23639 77.0855C1.36832 76.4512 1.54303 75.8212 1.75952 75.196L1.28705 75.0324C1.50522 74.4025 1.76422 73.7781 2.06293 73.16L2.51314 73.3775C2.79358 72.7971 3.11046 72.2212 3.463 71.6504L3.03758 71.3877C3.38518 70.8249 3.76604 70.2677 4.1792 69.7167L4.57922 70.0167C4.96777 69.4985 5.38605 68.9851 5.83339 68.4769L5.45807 68.1465C5.8954 67.6497 6.35942 67.1583 6.84941 66.6728L7.20134 67.028C7.66489 66.5687 8.15248 66.1142 8.66359 65.6649L8.33346 65.2894C8.82988 64.853 9.34769 64.4218 9.88631 63.996L10.1964 64.3883C10.709 63.9831 11.2412 63.5825 11.7923 63.1869L11.5007 62.7807C12.0392 62.3942 12.5952 62.0126 13.1684 61.6361L13.4429 62.054C13.993 61.6927 14.5594 61.3359 15.1415 60.9839L14.8828 60.556C15.4535 60.2109 16.039 59.8705 16.6389 59.535L16.883 59.9714C17.4595 59.6489 18.0497 59.3309 18.6531 59.0174L18.4227 58.5737C19.0119 58.2676 19.6136 57.966 20.2273 57.6689L20.4451 58.1189C21.0416 57.8302 21.6496 57.5458 22.2689 57.2658L22.0629 56.8102C22.6738 56.534 23.2955 56.2621 23.9277 55.9947L24.1225 56.4552C24.7312 56.1977 25.3497 55.9443 25.978 55.6952L25.7937 55.2304C26.4145 54.9842 27.0446 54.7421 27.6837 54.5043L27.8581 54.9729C28.4845 54.7399 29.1198 54.5108 29.7636 54.286L29.5987 53.8139C30.2272 53.5944 30.8638 53.3789 31.5081 53.1675L31.664 53.6426C32.2974 53.4347 32.9384 53.2308 33.5869 53.0309L33.4397 52.5531C34.0811 52.3554 34.7297 52.1617 35.3852 51.972L35.5242 52.4523C36.1628 52.2675 36.8082 52.0865 37.4601 51.9094L37.329 51.4269C37.9778 51.2506 38.633 51.0782 39.2945 50.9098L39.4179 51.3943C40.0634 51.2299 40.7149 51.0693 41.3723 50.9124L41.2563 50.4261C41.9088 50.2704 42.567 50.1185 43.2308 49.9704L43.3396 50.4584C43.9929 50.3127 44.6515 50.1707 45.3154 50.0325L45.2135 49.543C45.869 49.4065 46.5297 49.2737 47.1952 49.1447L47.2904 49.6355C47.9497 49.5077 48.614 49.3835 49.2829 49.2631L49.1943 48.771C49.8524 48.6526 50.5151 48.5377 51.1821 48.4266L51.2643 48.9198C51.9268 48.8094 52.5937 48.7027 53.2647 48.5996L53.1889 48.1054C53.8508 48.0038 54.5169 47.9058 55.1868 47.8114L55.2566 48.3065C55.9212 48.2129 56.5897 48.1228 57.262 48.0365L57.1983 47.5405C57.8638 47.455 58.533 47.3731 59.2057 47.2948L59.2635 47.7915C59.9299 47.7139 60.5998 47.6399 61.273 47.5696L61.2211 47.0723C61.8893 47.0025 62.5609 46.9362 63.2356 46.8735L63.2818 47.3714C63.9497 47.3094 64.6208 47.2509 65.2948 47.196L65.2542 46.6976C65.9245 46.6431 66.5978 46.592 67.2739 46.5446L67.3089 47.0434C67.978 46.9964 68.65 46.953 69.3247 46.9131L69.2952 46.414C69.9669 46.3743 70.6413 46.3382 71.3183 46.3057L71.3423 46.8051C72.0125 46.7729 72.6852 46.7442 73.3603 46.719L73.3417 46.2194C74.0143 46.1943 74.6893 46.1728 75.3666 46.1548L75.3799 46.6547C76.0509 46.6369 76.7241 46.6226 77.3995 46.6119L77.3915 46.112C78.0647 46.1013 78.7399 46.0942 79.4172 46.0906L79.4198 46.5906C79.7576 46.5888 80.0958 46.5879 80.4346 46.5879C80.7733 46.5879 81.1116 46.5888 81.4494 46.5906L81.452 46.0906C82.1293 46.0942 82.8045 46.1013 83.4776 46.112L83.4697 46.6119C84.1451 46.6226 84.8183 46.6369 85.4893 46.6547L85.5025 46.1548C86.1798 46.1728 86.8549 46.1943 87.5275 46.2194L87.5089 46.719C88.184 46.7442 88.8567 46.7729 89.5269 46.8051L89.5509 46.3057C90.2278 46.3382 90.9022 46.3743 91.574 46.414L91.5445 46.9131C92.2192 46.953 92.8911 46.9964 93.5603 47.0434L93.5953 46.5446C94.2714 46.592 94.9446 46.6431 95.6149 46.6976L95.5743 47.196C96.2484 47.2509 96.9194 47.3094 97.5873 47.3714L97.6335 46.8735C98.3083 46.9362 98.9798 47.0025 99.6481 47.0723L99.5961 47.5696C100.269 47.6399 100.939 47.7139 101.606 47.7915L101.663 47.2948C102.336 47.3731 103.005 47.455 103.671 47.5405L103.607 48.0365C104.279 48.1228 104.948 48.2129 105.613 48.3065L105.682 47.8114C106.352 47.9058 107.018 48.0038 107.68 48.1054L107.604 48.5996C108.275 48.7027 108.942 48.8094 109.605 48.9198L109.687 48.4266C110.354 48.5377 111.017 48.6526 111.675 48.771L111.586 49.2631C112.255 49.3835 112.919 49.5077 113.579 49.6355L113.674 49.1447C114.339 49.2737 115 49.4065 115.656 49.543L115.554 50.0325C116.218 50.1707 116.876 50.3127 117.529 50.4584L117.638 49.9704C118.302 50.1185 118.96 50.2704 119.613 50.4261L119.497 50.9124C120.154 51.0693 120.806 51.2299 121.451 51.3943L121.575 50.9098C122.236 51.0782 122.891 51.2506 123.54 51.4269L123.409 51.9094C124.061 52.0865 124.706 52.2675 125.345 52.4523L125.484 51.972C126.139 52.1617 126.788 52.3554 127.429 52.5531L127.282 53.0309C127.931 53.2308 128.572 53.4347 129.205 53.6425L129.361 53.1675C130.005 53.3789 130.642 53.5944 131.27 53.8139L131.106 54.286C131.749 54.5108 132.385 54.7399 133.011 54.9729L133.185 54.5043C133.825 54.7421 134.455 54.9842 135.075 55.2304L134.891 55.6952C135.519 55.9443 136.138 56.1977 136.747 56.4552L136.941 55.9947C137.574 56.2621 138.195 56.5339 138.806 56.8102L138.6 57.2658C139.22 57.5458 139.828 57.8302 140.424 58.1189L140.642 57.6689C141.256 57.966 141.857 58.2676 142.446 58.5737L142.216 59.0174C142.819 59.3309 143.41 59.6489 143.986 59.9714L144.23 59.535C144.83 59.8705 145.416 60.2109 145.986 60.556L145.728 60.9839C146.31 61.3359 146.876 61.6927 147.426 62.054L147.701 61.6361C148.274 62.0126 148.83 62.3942 149.368 62.7807L149.077 63.1869C149.628 63.5825 150.16 63.9831 150.673 64.3883L150.983 63.996C151.521 64.4218 152.039 64.853 152.536 65.2894L152.206 65.6649C152.717 66.1143 153.204 66.5687 153.668 67.028L154.02 66.6728C154.51 67.1584 154.974 67.6497 155.411 68.1466L155.036 68.4769C155.483 68.9851 155.901 69.4985 156.29 70.0167L156.69 69.7167C157.103 70.2678 157.484 70.8249 157.832 71.3877L157.406 71.6504C157.759 72.2213 158.076 72.7971 158.356 73.3775L158.806 73.16C159.105 73.7782 159.364 74.4025 159.582 75.0325L159.11 75.1961C159.326 75.8212 159.501 76.4512 159.633 77.0856L160.122 76.9838C160.26 77.6463 160.353 78.3144 160.4 78.9873L159.901 79.0219C159.923 79.3471 159.935 79.6734 159.935 80.0009C159.935 80.3284 159.923 80.6548 159.901 80.98L160.4 81.0146C160.353 81.6875 160.26 82.3556 160.122 83.0181L159.633 82.9163C159.501 83.5507 159.326 84.1807 159.11 84.8058L159.582 84.9694C159.364 85.5994 159.105 86.2237 158.806 86.8419L158.356 86.6244C158.076 87.2048 157.759 87.7806 157.406 88.3515L157.832 88.6142C157.484 89.177 157.103 89.7341 156.69 90.2851L156.29 89.9852C155.901 90.5034 155.483 91.0168 155.036 91.525L155.411 91.8553C154.974 92.3522 154.51 92.8435 154.02 93.329L153.668 92.9738C153.204 93.4332 152.717 93.8876 152.206 94.3369L152.536 94.7125C152.039 95.1489 151.521 95.5801 150.983 96.0058L150.673 95.6136C150.16 96.0188 149.628 96.4193 149.077 96.8149L149.368 97.2211C148.83 97.6076 148.274 97.9892 147.701 98.3657L147.426 97.9478C146.876 98.3092 146.31 98.666 145.728 99.018L145.986 99.4458C145.416 99.791 144.83 100.131 144.23 100.467L143.986 100.03C143.41 100.353 142.819 100.671 142.216 100.984L142.446 101.428C141.857 101.734 141.256 102.036 140.642 102.333L140.424 101.883C139.828 102.172 139.22 102.456 138.6 102.736L138.806 103.192C138.195 103.468 137.574 103.74 136.941 104.007L136.747 103.547C136.138 103.804 135.519 104.058 134.891 104.307L135.075 104.771C134.455 105.018 133.825 105.26 133.185 105.498L133.011 105.029C132.385 105.262 131.749 105.491 131.106 105.716L131.27 106.188C130.642 106.407 130.005 106.623 129.361 106.834L129.205 106.359C128.572 106.567 127.931 106.771 127.282 106.971L127.429 107.449C126.788 107.646 126.139 107.84 125.484 108.03L125.345 107.55C124.706 107.734 124.061 107.915 123.409 108.092L123.54 108.575C122.891 108.751 122.236 108.924 121.575 109.092L121.451 108.608C120.806 108.772 120.154 108.933 119.497 109.089L119.613 109.576C118.96 109.731 118.302 109.883 117.638 110.031L117.53 109.543C116.876 109.689 116.218 109.831 115.554 109.969L115.656 110.459C115 110.595 114.339 110.728 113.674 110.857L113.579 110.366C112.919 110.494 112.255 110.618 111.586 110.739L111.675 111.231C111.017 111.349 110.354 111.464 109.687 111.575L109.605 111.082C108.942 111.192 108.275 111.299 107.604 111.402L107.68 111.896C107.018 111.998 106.352 112.096 105.682 112.19L105.613 111.695C104.948 111.789 104.279 111.879 103.607 111.965L103.671 112.461C103.005 112.547 102.336 112.629 101.663 112.707L101.606 112.21C100.939 112.288 100.269 112.362 99.5961 112.432L99.6481 112.93C98.9798 112.999 98.3083 113.066 97.6335 113.128L97.5873 112.63C96.9194 112.693 96.2484 112.751 95.5743 112.806L95.6149 113.304C94.9446 113.359 94.2714 113.41 93.5952 113.457L93.5602 112.959C92.8911 113.005 92.2191 113.049 91.5445 113.089L91.5739 113.588C90.9022 113.628 90.2278 113.664 89.5509 113.696L89.5269 113.197C88.8567 113.229 88.184 113.258 87.5089 113.283L87.5275 113.783C86.8548 113.808 86.1798 113.829 85.5025 113.847L85.4892 113.347C84.8183 113.365 84.145 113.379 83.4697 113.39L83.4776 113.89Z" stroke="white" stroke-dasharray="2 2"/>
<rect x="79.7828" y="0.217391" width="0.434783" height="159.565" stroke="white" stroke-width="0.434783" stroke-dasharray="2 2"/>
<rect x="159.783" y="79.7818" width="0.434783" height="159.565" transform="rotate(90 159.783 79.7818)" stroke="white" stroke-width="0.434783" stroke-dasharray="2 2"/>
<circle cx="160" cy="79.5658" r="24.2826" fill="#070707" stroke="white"/>
<path d="M161.071 89.2617H159.807V88.0064H158.552V86.7511H157.296V85.4958H156.033V84.2319H154.777V82.9766H153.522V80.4574H152.267V74.1722H153.522V72.9169H154.777V71.653H158.552V72.9169H159.807V74.1722H161.071V72.9169H162.326V71.653H166.101V72.9169H167.356V74.1722H168.611V80.4574H167.356V82.9766H166.101V84.2319H164.837V85.4958H163.582V86.7511H162.326V88.0064H161.071V89.2617Z" fill="white"/>
</svg>
